REM MD5 0e9b376dc2e078818d5143c2df68f9a4
FILE "Compilation 03 (Australia).bin" BINARY
  TRACK 01 MODE2/2352
    INDEX 01 00:00:00
  TRACK 02 AUDIO
    INDEX 00 10:31:00
    INDEX 01 10:33:00
  TRACK 03 AUDIO
    INDEX 00 15:14:18
    INDEX 01 15:16:18
REM LEADOUT 18:17:18
